<?xml version="1.0" encoding="UTF-8" standalone="no"?>
<svg
   xmlns:svg="http://www.w3.org/2000/svg"
   xmlns="http://www.w3.org/2000/svg"
   xmlns:sodipodi="http://sodipodi.sourceforge.net/DTD/sodipodi-0.dtd"
   xmlns:inkscape="http://www.inkscape.org/namespaces/inkscape"
   width="77.242813mm"
   height="54.946442mm"
   viewBox="0 0 77.242813 54.946442"
   version="1.1"
   id="svg6"
   inkscape:version="1.1-dev (d3f8295, 2020-07-27)"
   sodipodi:docname="comiccon.svg">
  <defs
     id="defs2">
    <clipPath
       clipPathUnits="userSpaceOnUse"
       id="clipPath22">
      <path
         d="M 0,841.89 H 595.276 V 0 H 0 Z"
         id="path20" />
    </clipPath>
  </defs>
  <sodipodi:namedview
     id="base"
     pagecolor="#ffffff"
     bordercolor="#666666"
     borderopacity="1.0"
     inkscape:pageopacity="0.0"
     inkscape:pageshadow="2"
     inkscape:zoom="0.35"
     inkscape:cx="298.57143"
     inkscape:cy="182.85714"
     inkscape:document-units="mm"
     inkscape:current-layer="layer1"
     showgrid="false"
     inkscape:window-width="1264"
     inkscape:window-height="984"
     inkscape:window-x="49"
     inkscape:window-y="18"
     inkscape:window-maximized="0"
     fit-margin-top="0"
     fit-margin-left="0"
     fit-margin-right="0"
     fit-margin-bottom="0" />
  <g
     inkscape:label="Calque 1"
     inkscape:groupmode="layer"
     id="layer1"
     transform="translate(-26.3905,-99.526782)">
    <g
       id="g18"
       clip-path="url(#clipPath22)"
       transform="matrix(0.35277777,0,0,-0.35277777,-39.988271,275.50006)">
      <g
         id="g24"
         transform="translate(250.1289,373.2148)">
        <path
           d="m 0,0 v 17.231 h 3.704 c 2.469,0 3.703,-1.231 3.703,-3.693 V 9.846 C 7.407,7.385 6.173,6.154 3.704,6.154 H 2.47 V 0 Z M 2.47,14.77 V 8.615 h 1.234 c 0.823,0 1.234,0.411 1.234,1.231 v 3.692 c 0,0.821 -0.411,1.232 -1.234,1.232 z"
           style="fill:#000000;fill-opacity:1;fill-rule:nonzero;stroke:none"
           id="path26" />
      </g>
      <g
         id="g28"
         transform="translate(273.063,373.2148)">
        <path
           d="M 0,0 1.975,17.231 H 6.172 L 8.147,0 H 5.679 L 5.185,3.692 H 2.962 L 2.469,0 Z M 4.073,14.646 3.21,6.154 h 1.727 z"
           style="fill:#000000;fill-opacity:1;fill-rule:nonzero;stroke:none"
           id="path30" />
      </g>
      <g
         id="g32"
         transform="translate(296.7378,373.2148)">
        <path
           d="m 0,0 v 17.231 h 3.704 c 2.468,0 3.703,-1.231 3.703,-3.693 V 9.846 C 7.407,8.451 6.955,7.466 6.049,6.893 L 7.407,0 H 4.937 L 3.704,6.154 H 2.469 V 0 Z M 2.469,14.77 V 8.615 h 1.235 c 0.822,0 1.233,0.411 1.233,1.231 v 3.692 c 0,0.821 -0.411,1.232 -1.233,1.232 z"
           style="fill:#000000;fill-opacity:1;fill-rule:nonzero;stroke:none"
           id="path34" />
      </g>
      <path
         d="m 322.142,373.215 h -2.47 v 17.231 h 2.47 z"
         style="fill:#000000;fill-opacity:1;fill-rule:nonzero;stroke:none"
         id="path36" />
      <g
         id="g38"
         transform="translate(337.6689,378.752)">
        <path
           d="m 0,0 h 2.469 v -1.846 c 0,-0.819 0.411,-1.23 1.234,-1.23 0.822,0 1.235,0.411 1.235,1.23 v 1.231 c 0,0.82 -0.825,1.846 -2.469,3.078 C 0.823,3.693 0,5.128 0,6.771 V 8 c 0,2.462 1.234,3.693 3.703,3.693 2.469,0 3.704,-1.231 3.704,-3.693 V 6.154 H 4.938 V 8 C 4.938,8.822 4.525,9.231 3.703,9.231 2.88,9.231 2.469,8.822 2.469,8 V 6.771 C 2.469,5.95 3.292,4.924 4.938,3.693 6.583,2.463 7.407,1.027 7.407,-0.615 V -1.846 C 7.407,-4.307 6.172,-5.538 3.703,-5.538 1.234,-5.538 0,-4.307 0,-1.846 Z"
           style="fill:#000000;fill-opacity:1;fill-rule:nonzero;stroke:none"
           id="path40" />
      </g>
      <g
         id="g42"
         transform="translate(407.1143,464.4512)">
        <path
           d="m 0,0 c 0,4.669 -3.618,8.93 -8.236,9.702 l -94.526,15.79 c -1.806,0.301 -4.191,0.468 -6.715,0.468 -2.525,0 -4.91,-0.167 -6.717,-0.468 l -34.31,-5.732 0.841,-4.446 34.219,5.716 c 1.544,0.258 3.719,0.406 5.967,0.406 2.247,0 4.421,-0.148 5.966,-0.406 L -8.985,5.24 C -6.574,4.837 -4.537,2.438 -4.537,0 l 0.002,-74.491 c 0,-2.576 -2.126,-5.62 -4.55,-6.513 l -95.148,-35.078 c -1.339,-0.494 -3.25,-0.777 -5.244,-0.777 -1.994,0 -3.906,0.283 -5.245,0.777 l -95.145,35.078 c -2.424,0.893 -4.549,3.937 -4.549,6.513 L -214.418,0 c 0,2.438 2.037,4.837 4.449,5.24 l 52.363,8.747 v 4.587 L -210.719,9.702 C -215.337,8.93 -218.954,4.669 -218.954,0 l 0.001,-74.491 c 0,-4.479 3.3,-9.203 7.513,-10.756 l 95.145,-35.078 c 1.85,-0.682 4.271,-1.058 6.818,-1.058 2.545,0 4.966,0.376 6.818,1.058 l 95.146,35.078 c 4.214,1.553 7.515,6.277 7.515,10.756 z"
           style="fill:#000000;fill-opacity:1;fill-rule:nonzero;stroke:none"
           id="path44" />
      </g>
      <g
         id="g46"
         transform="translate(223.7808,440.2622)">
        <path
           d="m 0,0 v 7.505 c 0,7.504 -3.764,11.257 -11.291,11.257 -7.526,0 -11.289,-3.753 -11.289,-11.257 v -30.019 c 0,-7.505 3.763,-11.257 11.289,-11.257 7.527,0 11.291,3.752 11.291,11.257 v 7.505 h -7.526 v -7.505 c 0,-2.502 -1.256,-3.753 -3.765,-3.753 -2.509,0 -3.763,1.251 -3.763,3.753 V 7.505 c 0,2.501 1.254,3.752 3.763,3.752 2.509,0 3.765,-1.251 3.765,-3.752 V 0 Z"
           style="fill:#000000;fill-opacity:1;fill-rule:nonzero;stroke:none"
           id="path48" />
      </g>
      <g
         id="g50"
         transform="translate(226.353,447.7661)">
        <path
           d="m 0,0 v -30.019 c 0,-7.504 3.764,-11.257 11.29,-11.257 7.528,0 11.291,3.753 11.291,11.257 V 0 c 0,7.505 -3.763,11.258 -11.291,11.258 C 3.764,11.258 0,7.505 0,0 m 15.055,0 v -30.019 c 0,-2.502 -1.256,-3.752 -3.765,-3.752 -2.509,0 -3.763,1.25 -3.763,3.752 L 7.527,0 c 0,2.502 1.254,3.752 3.763,3.752 2.509,0 3.765,-1.25 3.765,-3.752"
           style="fill:#000000;fill-opacity:1;fill-rule:nonzero;stroke:none"
           id="path52" />
      </g>
      <path
         d="m 281.858,406.491 h 7.526 v 52.533 h -7.526 z"
         style="fill:#000000;fill-opacity:1;fill-rule:nonzero;stroke:none"
         id="path54" />
      <g
         id="g56"
         transform="translate(314.5371,440.2622)">
        <path
           d="m 0,0 v 7.505 c 0,7.504 -3.763,11.257 -11.289,11.257 -7.527,0 -11.291,-3.753 -11.291,-11.257 v -30.019 c 0,-7.505 3.764,-11.257 11.291,-11.257 7.526,0 11.289,3.752 11.289,11.257 v 7.505 h -7.526 v -7.505 c 0,-2.502 -1.256,-3.753 -3.763,-3.753 -2.511,0 -3.763,1.251 -3.763,3.753 V 7.505 c 0,2.501 1.252,3.752 3.763,3.752 2.507,0 3.763,-1.251 3.763,-3.752 V 0 Z"
           style="fill:#000000;fill-opacity:1;fill-rule:nonzero;stroke:none"
           id="path58" />
      </g>
      <g
         id="g60"
         transform="translate(368.8525,417.4316)">
        <path
           d="m 0,0 v 30.02 c 0,7.504 -3.763,11.256 -11.29,11.256 -7.525,0 -11.289,-3.752 -11.289,-11.256 V 0 c 0,-7.504 3.764,-11.257 11.289,-11.257 C -3.763,-11.257 0,-7.504 0,0 m -15.053,0 v 30.02 c 0,2.501 1.255,3.751 3.763,3.751 2.511,0 3.766,-1.25 3.766,-3.751 V 0 c 0,-2.502 -1.255,-3.752 -3.766,-3.752 -2.508,0 -3.763,1.25 -3.763,3.752"
           style="fill:#000000;fill-opacity:1;fill-rule:nonzero;stroke:none"
           id="path62" />
      </g>
      <g
         id="g64"
         transform="translate(386.4785,406.1748)">
        <path
           d="M 0,0 H 7.526 V 52.533 H 0 V 27.372 l -7.526,25.161 h -7.527 V 0 h 7.527 v 23.282 z"
           style="fill:#000000;fill-opacity:1;fill-rule:nonzero;stroke:none"
           id="path66" />
      </g>
      <g
         id="g68"
         transform="translate(343.7021,439.9463)">
        <path
           d="m 0,0 v 7.505 c 0,7.505 -3.763,11.257 -11.289,11.257 -7.526,0 -11.29,-3.752 -11.29,-11.257 v -30.02 c 0,-7.504 3.764,-11.256 11.29,-11.256 7.526,0 11.289,3.752 11.289,11.256 v 7.506 h -7.526 v -7.506 c 0,-2.502 -1.255,-3.752 -3.763,-3.752 -2.511,0 -3.763,1.25 -3.763,3.752 v 30.02 c 0,2.502 1.252,3.753 3.763,3.753 2.508,0 3.763,-1.251 3.763,-3.753 V 0 Z"
           style="fill:#000000;fill-opacity:1;fill-rule:nonzero;stroke:none"
           id="path70" />
      </g>
      <g
         id="g72"
         transform="translate(259.0332,421.0859)">
        <path
           d="M 0,0 6.301,-19.894 12.727,0 20.253,-28.595 V 37.938 H 12.725 L 6.435,5.181 -7.527,77.736 V -14.596 H 0 Z"
           style="fill:#000000;fill-opacity:1;fill-rule:nonzero;stroke:none"
           id="path74" />
      </g>
      <g
         id="g76"
         transform="translate(293.7368,359.0166)">
        <path
           d="m 0,0 h 0.669 c 0,0 -0.104,0.646 -0.104,1.314 v 3.38 c 0,0.276 0.267,1.224 1.475,1.011 l 0.042,0.471 c 0,0 -1.146,0.226 -1.529,-0.788 L 0.494,5.399 0.541,6.092 H 0.004 c 0,0 0.096,-0.872 0.096,-1.457 V 1.422 C 0.1,0.896 0,0 0,0"
           style="fill:#000000;fill-opacity:1;fill-rule:nonzero;stroke:none"
           id="path78" />
      </g>
      <g
         id="g80"
         transform="translate(313.1016,364.0937)">
        <path
           d="M 0,0 C -0.684,0 -1.206,-0.227 -1.564,-0.737 H -1.6 v 0.583 h -1.015 v -0.918 c -0.405,0.655 -1.104,1.087 -1.989,1.087 -0.824,0 -1.487,-0.374 -1.901,-0.955 C -6.919,-0.368 -7.562,0 -8.301,0 -8.984,0 -9.507,-0.227 -9.865,-0.737 h -0.036 v 0.583 h -1.016 v -7.012 h 1.111 v 2.808 c 0.371,-0.397 0.885,-0.637 1.517,-0.637 0.713,0 1.361,0.375 1.782,0.957 0.414,-0.582 1.078,-0.957 1.903,-0.957 0.885,0 1.584,0.431 1.989,1.086 v -3.257 h 1.11 v 2.808 c 0.371,-0.397 0.886,-0.637 1.518,-0.637 1.23,0 2.274,1.118 2.274,2.497 C 2.287,-1.118 1.29,0 0,0 m -8.472,-3.978 c -0.824,0 -1.36,0.662 -1.36,1.477 0,0.815 0.536,1.477 1.36,1.477 0.825,0 1.361,-0.662 1.361,-1.477 0,-0.815 -0.536,-1.477 -1.361,-1.477 m 3.868,0.094 c -0.72,0 -1.199,0.624 -1.199,1.393 0,0.769 0.479,1.393 1.199,1.393 0.721,0 1.2,-0.624 1.2,-1.393 0,-0.769 -0.479,-1.393 -1.2,-1.393 m 4.433,-0.094 c -0.823,0 -1.359,0.662 -1.359,1.477 0,0.815 0.536,1.477 1.359,1.477 0.824,0 1.36,-0.662 1.36,-1.477 0,-0.815 -0.536,-1.477 -1.36,-1.477"
           style="fill:#000000;fill-opacity:1;fill-rule:nonzero;stroke:none"
           id="path82" />
      </g>
      <g
         id="g84"
         transform="translate(291,362.418)">
        <path
           d="M 0,0 2.06,4.25 -0.566,0.406 -1.073,2.118 -1.277,0.334 -4.511,2.51 l 2.727,-2.699 -1.77,-0.203 1.697,-0.507 -1.16,-1.306 1.581,0.769 -0.522,-3.409 1.204,3.191 1.247,-1.871 -0.624,2.205 2.394,-1.001 -2.089,1.61 1.538,0.813 z"
           style="fill:#000000;fill-opacity:1;fill-rule:nonzero;stroke:none"
           id="path86" />
      </g>
      <g
         id="g88"
         transform="translate(298.8623,360.8867)">
        <path
           d="m 0,0 c 0,0 0.065,-0.213 0.026,-0.585 -0.04,-0.373 -0.253,-0.798 -0.797,-0.705 -0.475,0.081 -0.86,0.77 -0.841,1.982 h 1.918 c 0,0 0.031,0.648 -0.12,1.263 -0.125,0.508 -0.413,0.776 -0.957,0.776 -1.057,0 -1.169,-1.374 -1.169,-1.867 0,-0.344 0.008,-1.06 0.238,-1.622 0.261,-0.639 0.611,-0.862 1.182,-0.85 0.586,0.01 0.932,0.625 0.932,1.608 z m -0.652,2.435 c 0.246,-0.028 0.419,-0.229 0.506,-0.48 0.085,-0.251 0.109,-0.512 0.109,-0.958 H -1.6 c 0.079,1.172 0.476,1.488 0.948,1.438"
           style="fill:#000000;fill-opacity:1;fill-rule:nonzero;stroke:none"
           id="path90" />
      </g>
      <g
         id="g92"
         transform="translate(296.4048,360.9883)">
        <path
           d="m 0,0 c 0,0 0.06,-0.191 0.024,-0.526 -0.036,-0.334 -0.227,-0.716 -0.717,-0.633 -0.426,0.073 -0.771,0.692 -0.755,1.78 h 1.703 c 0,0 0.032,0.593 -0.088,1.135 -0.101,0.458 -0.37,0.696 -0.86,0.696 -0.947,0 -1.051,-1.234 -1.051,-1.677 0,-0.309 0.008,-0.938 0.215,-1.457 0.231,-0.576 0.55,-0.785 1.063,-0.763 C 0.088,-1.421 0.37,-0.884 0.37,0 Z m -0.585,2.186 c 0.221,-0.024 0.376,-0.206 0.454,-0.43 0.077,-0.227 0.091,-0.534 0.083,-0.86 h -1.389 c 0.072,1.05 0.429,1.334 0.852,1.29"
           style="fill:#000000;fill-opacity:1;fill-rule:nonzero;stroke:none"
           id="path94" />
      </g>
      <g
         id="g96"
         transform="translate(301.8633,364.6787)">
        <path
           d="m 0,0 h -0.538 c 0.044,-0.306 0.027,-1.231 0.007,-2.009 -1.375,0.238 -1.943,-0.486 -1.929,-1.753 0.011,-1.167 0.592,-1.356 1.03,-1.437 0.471,-0.088 1.299,-0.025 1.299,-0.025 0,0 -0.051,0.841 -0.06,1.403 -0.016,0.898 0,2.065 0.047,2.782 C -0.104,-0.455 0,0 0,0 m -1.434,-4.824 c -0.334,0.084 -0.561,0.321 -0.632,0.978 -0.084,0.763 0.199,1.357 0.712,1.454 0.308,0.059 0.634,0.029 0.813,0.003 -0.017,-0.87 0.015,-2.46 0.015,-2.46 0,0 -0.53,-0.072 -0.908,0.025"
           style="fill:#000000;fill-opacity:1;fill-rule:nonzero;stroke:none"
           id="path98" />
      </g>
      <g
         id="g100"
         transform="translate(281.5039,360.4541)">
        <path
           d="M 0,0 C -0.267,0 -0.505,0.096 -0.701,0.28 V 0.046 h -0.524 v 3.28 h 0.524 V 2.184 C -0.504,2.378 -0.269,2.477 0,2.477 0.539,2.477 1.111,2.043 1.111,1.24 1.111,0.435 0.539,0 0,0 m -0.057,1.976 c -0.323,0 -0.657,-0.275 -0.657,-0.736 0,-0.463 0.334,-0.739 0.657,-0.739 0.38,0 0.636,0.295 0.636,0.735 0,0.486 -0.32,0.74 -0.636,0.74"
           style="fill:#000000;fill-opacity:1;fill-rule:nonzero;stroke:none"
           id="path102" />
      </g>
      <g
         id="g104"
         transform="translate(283.2739,359.8164)">
        <path
           d="m 0,0 c -0.179,0 -0.327,0.035 -0.495,0.119 l -0.088,0.045 0.188,0.453 0.103,-0.055 c 0.09,-0.047 0.168,-0.066 0.28,-0.066 0.101,0 0.195,0.024 0.317,0.302 l -1.004,2.27 h 0.577 L 0.568,1.436 1.177,3.068 H 1.739 L 0.798,0.68 C 0.608,0.203 0.37,0 0,0"
           style="fill:#000000;fill-opacity:1;fill-rule:nonzero;stroke:none"
           id="path106" />
      </g>
      <g
         id="g108"
         transform="translate(393.8389,462.7412)">
        <path
           d="M 0,0 0.008,2.583 -0.914,2.586 -0.912,3.112 1.56,3.104 1.556,2.578 0.635,2.58 0.626,-0.001 Z"
           style="fill:#000000;fill-opacity:1;fill-rule:nonzero;stroke:none"
           id="path110" />
      </g>
      <g
         id="g112"
         transform="translate(395.7812,462.7349)">
        <path
           d="M 0,0 0.009,3.11 0.951,3.106 1.504,0.984 2.069,3.101 3.012,3.1 3.003,-0.009 2.42,-0.008 2.428,2.44 1.804,-0.006 1.197,-0.003 0.59,2.445 0.583,-0.002 Z"
           style="fill:#000000;fill-opacity:1;fill-rule:nonzero;stroke:none"
           id="path114" />
      </g>
    </g>
  </g>
</svg>
